<?xml version="1.0" encoding="UTF-8"?>
<svg width="1024" height="1024" viewBox="0 0 1024 1024" fill="none" xmlns="http://www.w3.org/2000/svg">
  <rect width="1024" height="1024" rx="236" fill="#fffdf8"/>
  <g filter="url(#shadow)">
    <rect x="160" y="160" width="704" height="704" rx="168" fill="url(#badge)"/>
    <rect x="720" y="160" width="144" height="704" rx="0" fill="#b91c1c"/>
    <path d="M720 160H760C817.438 160 864 206.562 864 264V760C864 817.438 817.438 864 760 864H720V160Z" fill="#b91c1c"/>
  </g>
  <g transform="translate(248 300) scale(0.825)" fill="#fffdf8">
    <path d="M576 48c0-11.1-5.7-21.4-15.2-27.2s-21.2-6.4-31.1-1.4L413.5 77.5 234.1 17.6c-8.1-2.7-16.8-2.1-24.4 1.7l-128 64C70.8 88.8 64 99.9 64 112l0 352c0 11.1 5.7 21.4 15.2 27.2s21.2 6.4 31.1 1.4l116.1-58.1 173.3 57.8c-4.3-6.4-8.5-13.1-12.6-19.9-11-18.3-21.9-39.3-30-61.8l-101.2-33.7 0-284.5 128 42.7 0 99.3c31-35.8 77-58.4 128-58.4 22.6 0 44.2 4.4 64 12.5L576 48zM512 224c-66.3 0-120 52.8-120 117.9 0 68.9 64.1 150.4 98.6 189.3 11.6 13 31.3 13 42.9 0 34.5-38.9 98.6-120.4 98.6-189.3 0-65.1-53.7-117.9-120-117.9zM472 344a40 40 0 1 1 80 0 40 40 0 1 1 -80 0z"/>
  </g>
  <defs>
    <linearGradient id="badge" x1="160" y1="160" x2="864" y2="864" gradientUnits="userSpaceOnUse">
      <stop stop-color="#0f5132"/>
      <stop offset="1" stop-color="#1f2933"/>
    </linearGradient>
    <filter id="shadow" x="112" y="128" width="800" height="800" filterUnits="userSpaceOnUse" color-interpolation-filters="sRGB">
      <feDropShadow dx="0" dy="30" stdDeviation="28" flood-color="#b91c1c" flood-opacity="0.24"/>
    </filter>
  </defs>
</svg>
